<mxfile host="Electron" modified="2025-04-23T10:03:41.669Z" agent="Mozilla/5.0 (Windows NT 10.0; Win64; x64) AppleWebKit/537.36 (KHTML, like Gecko) draw.io/23.1.5 Chrome/120.0.6099.109 Electron/28.1.0 Safari/537.36" etag="4AgX79WrrBNW27Pjj3I2" version="23.1.5" type="device">
  <diagram name="Page-1" id="kjVbcgZxxxdwc_HPmWSP">
    <mxGraphModel dx="1314" dy="1632" grid="1" gridSize="10" guides="1" tooltips="1" connect="1" arrows="1" fold="1" page="1" pageScale="1" pageWidth="850" pageHeight="1100" math="0" shadow="0">
      <root>
        <mxCell id="0" />
        <mxCell id="1" parent="0" />
        <mxCell id="Nn1PM37cGR2AIW84P77a-1" value="Client" style="rounded=0;whiteSpace=wrap;html=1;" vertex="1" parent="1">
          <mxGeometry x="160" y="250" width="120" height="60" as="geometry" />
        </mxCell>
        <mxCell id="Nn1PM37cGR2AIW84P77a-2" value="Signup" style="ellipse;whiteSpace=wrap;html=1;aspect=fixed;" vertex="1" parent="1">
          <mxGeometry x="440" y="120" width="80" height="80" as="geometry" />
        </mxCell>
        <mxCell id="Nn1PM37cGR2AIW84P77a-4" value="Signin" style="ellipse;whiteSpace=wrap;html=1;aspect=fixed;" vertex="1" parent="1">
          <mxGeometry x="440" y="240" width="80" height="80" as="geometry" />
        </mxCell>
        <mxCell id="Nn1PM37cGR2AIW84P77a-5" value="Detect" style="ellipse;whiteSpace=wrap;html=1;aspect=fixed;" vertex="1" parent="1">
          <mxGeometry x="440" y="360" width="80" height="80" as="geometry" />
        </mxCell>
        <mxCell id="Nn1PM37cGR2AIW84P77a-6" value="" style="endArrow=classic;html=1;rounded=0;exitX=0.75;exitY=0;exitDx=0;exitDy=0;entryX=0;entryY=1;entryDx=0;entryDy=0;" edge="1" parent="1" source="Nn1PM37cGR2AIW84P77a-1" target="Nn1PM37cGR2AIW84P77a-2">
          <mxGeometry width="50" height="50" relative="1" as="geometry">
            <mxPoint x="400" y="300" as="sourcePoint" />
            <mxPoint x="450" y="250" as="targetPoint" />
            <Array as="points">
              <mxPoint x="250" y="188" />
            </Array>
          </mxGeometry>
        </mxCell>
        <mxCell id="Nn1PM37cGR2AIW84P77a-8" value="Email ID and Password" style="edgeLabel;html=1;align=center;verticalAlign=middle;resizable=0;points=[];" vertex="1" connectable="0" parent="Nn1PM37cGR2AIW84P77a-6">
          <mxGeometry x="0.221" y="-2" relative="1" as="geometry">
            <mxPoint y="-2" as="offset" />
          </mxGeometry>
        </mxCell>
        <mxCell id="Nn1PM37cGR2AIW84P77a-7" value="" style="endArrow=classic;html=1;rounded=0;entryX=0.25;entryY=0;entryDx=0;entryDy=0;exitX=0;exitY=0;exitDx=0;exitDy=0;" edge="1" parent="1" source="Nn1PM37cGR2AIW84P77a-2" target="Nn1PM37cGR2AIW84P77a-1">
          <mxGeometry width="50" height="50" relative="1" as="geometry">
            <mxPoint x="400" y="300" as="sourcePoint" />
            <mxPoint x="450" y="250" as="targetPoint" />
            <Array as="points">
              <mxPoint x="190" y="132" />
            </Array>
          </mxGeometry>
        </mxCell>
        <mxCell id="Nn1PM37cGR2AIW84P77a-9" value="Redirect to Signin or error message" style="edgeLabel;html=1;align=center;verticalAlign=middle;resizable=0;points=[];" vertex="1" connectable="0" parent="Nn1PM37cGR2AIW84P77a-7">
          <mxGeometry x="-0.3115" y="1" relative="1" as="geometry">
            <mxPoint y="-1" as="offset" />
          </mxGeometry>
        </mxCell>
        <mxCell id="Nn1PM37cGR2AIW84P77a-13" value="" style="endArrow=classic;html=1;rounded=0;exitX=1;exitY=0.25;exitDx=0;exitDy=0;entryX=0;entryY=0;entryDx=0;entryDy=0;" edge="1" parent="1" source="Nn1PM37cGR2AIW84P77a-1" target="Nn1PM37cGR2AIW84P77a-4">
          <mxGeometry width="50" height="50" relative="1" as="geometry">
            <mxPoint x="400" y="300" as="sourcePoint" />
            <mxPoint x="400" y="280" as="targetPoint" />
            <Array as="points">
              <mxPoint x="400" y="265" />
            </Array>
          </mxGeometry>
        </mxCell>
        <mxCell id="Nn1PM37cGR2AIW84P77a-15" value="Email ID and Password" style="edgeLabel;html=1;align=center;verticalAlign=middle;resizable=0;points=[];" vertex="1" connectable="0" parent="Nn1PM37cGR2AIW84P77a-13">
          <mxGeometry x="-0.2733" relative="1" as="geometry">
            <mxPoint as="offset" />
          </mxGeometry>
        </mxCell>
        <mxCell id="Nn1PM37cGR2AIW84P77a-14" value="" style="endArrow=classic;html=1;rounded=0;entryX=1;entryY=0.75;entryDx=0;entryDy=0;exitX=0;exitY=1;exitDx=0;exitDy=0;" edge="1" parent="1" source="Nn1PM37cGR2AIW84P77a-4" target="Nn1PM37cGR2AIW84P77a-1">
          <mxGeometry width="50" height="50" relative="1" as="geometry">
            <mxPoint x="400" y="300" as="sourcePoint" />
            <mxPoint x="450" y="250" as="targetPoint" />
            <Array as="points">
              <mxPoint x="400" y="295" />
            </Array>
          </mxGeometry>
        </mxCell>
        <mxCell id="Nn1PM37cGR2AIW84P77a-16" value="Redirect to Detect or&amp;nbsp;&lt;br&gt;error message" style="edgeLabel;html=1;align=center;verticalAlign=middle;resizable=0;points=[];" vertex="1" connectable="0" parent="Nn1PM37cGR2AIW84P77a-14">
          <mxGeometry x="0.2733" y="2" relative="1" as="geometry">
            <mxPoint x="2" as="offset" />
          </mxGeometry>
        </mxCell>
        <mxCell id="Nn1PM37cGR2AIW84P77a-17" value="" style="endArrow=classic;html=1;rounded=0;exitX=0.75;exitY=1;exitDx=0;exitDy=0;entryX=0;entryY=0;entryDx=0;entryDy=0;" edge="1" parent="1" source="Nn1PM37cGR2AIW84P77a-1" target="Nn1PM37cGR2AIW84P77a-5">
          <mxGeometry width="50" height="50" relative="1" as="geometry">
            <mxPoint x="400" y="300" as="sourcePoint" />
            <mxPoint x="450" y="250" as="targetPoint" />
            <Array as="points">
              <mxPoint x="250" y="372" />
            </Array>
          </mxGeometry>
        </mxCell>
        <mxCell id="Nn1PM37cGR2AIW84P77a-19" value="URL" style="edgeLabel;html=1;align=center;verticalAlign=middle;resizable=0;points=[];" vertex="1" connectable="0" parent="Nn1PM37cGR2AIW84P77a-17">
          <mxGeometry x="0.2438" y="-1" relative="1" as="geometry">
            <mxPoint as="offset" />
          </mxGeometry>
        </mxCell>
        <mxCell id="Nn1PM37cGR2AIW84P77a-18" value="" style="endArrow=classic;html=1;rounded=0;entryX=0.25;entryY=1;entryDx=0;entryDy=0;exitX=0;exitY=1;exitDx=0;exitDy=0;" edge="1" parent="1" source="Nn1PM37cGR2AIW84P77a-5" target="Nn1PM37cGR2AIW84P77a-1">
          <mxGeometry width="50" height="50" relative="1" as="geometry">
            <mxPoint x="400" y="300" as="sourcePoint" />
            <mxPoint x="450" y="250" as="targetPoint" />
            <Array as="points">
              <mxPoint x="190" y="428" />
            </Array>
          </mxGeometry>
        </mxCell>
        <mxCell id="Nn1PM37cGR2AIW84P77a-20" value="Status" style="edgeLabel;html=1;align=center;verticalAlign=middle;resizable=0;points=[];" vertex="1" connectable="0" parent="Nn1PM37cGR2AIW84P77a-18">
          <mxGeometry x="-0.3115" y="2" relative="1" as="geometry">
            <mxPoint as="offset" />
          </mxGeometry>
        </mxCell>
        <mxCell id="Nn1PM37cGR2AIW84P77a-21" value="Test URL" style="ellipse;whiteSpace=wrap;html=1;aspect=fixed;" vertex="1" parent="1">
          <mxGeometry x="-80" y="240" width="80" height="80" as="geometry" />
        </mxCell>
        <mxCell id="Nn1PM37cGR2AIW84P77a-22" value="" style="endArrow=classic;html=1;rounded=0;entryX=1;entryY=0;entryDx=0;entryDy=0;exitX=0;exitY=0.25;exitDx=0;exitDy=0;" edge="1" parent="1" source="Nn1PM37cGR2AIW84P77a-1" target="Nn1PM37cGR2AIW84P77a-21">
          <mxGeometry width="50" height="50" relative="1" as="geometry">
            <mxPoint x="250" y="400" as="sourcePoint" />
            <mxPoint x="300" y="350" as="targetPoint" />
            <Array as="points">
              <mxPoint x="40" y="265" />
            </Array>
          </mxGeometry>
        </mxCell>
        <mxCell id="Nn1PM37cGR2AIW84P77a-23" value="Email ID, Password&lt;br&gt;and URL" style="edgeLabel;html=1;align=center;verticalAlign=middle;resizable=0;points=[];" vertex="1" connectable="0" parent="Nn1PM37cGR2AIW84P77a-22">
          <mxGeometry x="-0.2964" y="-1" relative="1" as="geometry">
            <mxPoint as="offset" />
          </mxGeometry>
        </mxCell>
        <mxCell id="Nn1PM37cGR2AIW84P77a-24" value="" style="endArrow=classic;html=1;rounded=0;exitX=1;exitY=1;exitDx=0;exitDy=0;entryX=0;entryY=0.75;entryDx=0;entryDy=0;" edge="1" parent="1" source="Nn1PM37cGR2AIW84P77a-21" target="Nn1PM37cGR2AIW84P77a-1">
          <mxGeometry width="50" height="50" relative="1" as="geometry">
            <mxPoint x="250" y="400" as="sourcePoint" />
            <mxPoint x="300" y="350" as="targetPoint" />
            <Array as="points">
              <mxPoint x="40" y="295" />
            </Array>
          </mxGeometry>
        </mxCell>
        <mxCell id="Nn1PM37cGR2AIW84P77a-25" value="Status or error&lt;br&gt;message" style="edgeLabel;html=1;align=center;verticalAlign=middle;resizable=0;points=[];" vertex="1" connectable="0" parent="Nn1PM37cGR2AIW84P77a-24">
          <mxGeometry x="0.2964" y="-2" relative="1" as="geometry">
            <mxPoint as="offset" />
          </mxGeometry>
        </mxCell>
        <mxCell id="Nn1PM37cGR2AIW84P77a-26" value="Detection Service" style="ellipse;whiteSpace=wrap;html=1;aspect=fixed;" vertex="1" parent="1">
          <mxGeometry x="180" y="480" width="80" height="80" as="geometry" />
        </mxCell>
        <mxCell id="Nn1PM37cGR2AIW84P77a-27" value="" style="endArrow=classic;html=1;rounded=0;exitX=0.5;exitY=1;exitDx=0;exitDy=0;entryX=0;entryY=0;entryDx=0;entryDy=0;" edge="1" parent="1" source="Nn1PM37cGR2AIW84P77a-21" target="Nn1PM37cGR2AIW84P77a-26">
          <mxGeometry width="50" height="50" relative="1" as="geometry">
            <mxPoint x="250" y="400" as="sourcePoint" />
            <mxPoint x="300" y="350" as="targetPoint" />
            <Array as="points">
              <mxPoint x="-40" y="492" />
            </Array>
          </mxGeometry>
        </mxCell>
        <mxCell id="Nn1PM37cGR2AIW84P77a-31" value="URL" style="edgeLabel;html=1;align=center;verticalAlign=middle;resizable=0;points=[];" vertex="1" connectable="0" parent="Nn1PM37cGR2AIW84P77a-27">
          <mxGeometry x="0.4168" relative="1" as="geometry">
            <mxPoint as="offset" />
          </mxGeometry>
        </mxCell>
        <mxCell id="Nn1PM37cGR2AIW84P77a-28" value="" style="endArrow=classic;html=1;rounded=0;entryX=0;entryY=1;entryDx=0;entryDy=0;exitX=0;exitY=1;exitDx=0;exitDy=0;" edge="1" parent="1" source="Nn1PM37cGR2AIW84P77a-26" target="Nn1PM37cGR2AIW84P77a-21">
          <mxGeometry width="50" height="50" relative="1" as="geometry">
            <mxPoint x="-100" y="430" as="sourcePoint" />
            <mxPoint x="300" y="350" as="targetPoint" />
            <Array as="points">
              <mxPoint x="-68" y="550" />
            </Array>
          </mxGeometry>
        </mxCell>
        <mxCell id="Nn1PM37cGR2AIW84P77a-32" value="Status" style="edgeLabel;html=1;align=center;verticalAlign=middle;resizable=0;points=[];" vertex="1" connectable="0" parent="Nn1PM37cGR2AIW84P77a-28">
          <mxGeometry x="-0.4826" y="1" relative="1" as="geometry">
            <mxPoint as="offset" />
          </mxGeometry>
        </mxCell>
        <mxCell id="Nn1PM37cGR2AIW84P77a-29" value="" style="endArrow=classic;html=1;rounded=0;exitX=0.5;exitY=1;exitDx=0;exitDy=0;entryX=1;entryY=0;entryDx=0;entryDy=0;" edge="1" parent="1" source="Nn1PM37cGR2AIW84P77a-5" target="Nn1PM37cGR2AIW84P77a-26">
          <mxGeometry width="50" height="50" relative="1" as="geometry">
            <mxPoint x="250" y="400" as="sourcePoint" />
            <mxPoint x="300" y="350" as="targetPoint" />
            <Array as="points">
              <mxPoint x="480" y="490" />
            </Array>
          </mxGeometry>
        </mxCell>
        <mxCell id="Nn1PM37cGR2AIW84P77a-33" value="UR:" style="edgeLabel;html=1;align=center;verticalAlign=middle;resizable=0;points=[];" vertex="1" connectable="0" parent="Nn1PM37cGR2AIW84P77a-29">
          <mxGeometry x="0.1645" y="3" relative="1" as="geometry">
            <mxPoint as="offset" />
          </mxGeometry>
        </mxCell>
        <mxCell id="Nn1PM37cGR2AIW84P77a-30" value="" style="endArrow=classic;html=1;rounded=0;exitX=1;exitY=1;exitDx=0;exitDy=0;entryX=1;entryY=1;entryDx=0;entryDy=0;" edge="1" parent="1" source="Nn1PM37cGR2AIW84P77a-26" target="Nn1PM37cGR2AIW84P77a-5">
          <mxGeometry width="50" height="50" relative="1" as="geometry">
            <mxPoint x="250" y="400" as="sourcePoint" />
            <mxPoint x="300" y="350" as="targetPoint" />
            <Array as="points">
              <mxPoint x="510" y="550" />
            </Array>
          </mxGeometry>
        </mxCell>
        <mxCell id="Nn1PM37cGR2AIW84P77a-34" value="Status" style="edgeLabel;html=1;align=center;verticalAlign=middle;resizable=0;points=[];" vertex="1" connectable="0" parent="Nn1PM37cGR2AIW84P77a-30">
          <mxGeometry x="-0.3023" y="-6" relative="1" as="geometry">
            <mxPoint y="-6" as="offset" />
          </mxGeometry>
        </mxCell>
        <mxCell id="Nn1PM37cGR2AIW84P77a-35" value="User DB" style="shape=partialRectangle;whiteSpace=wrap;html=1;left=0;right=0;fillColor=none;" vertex="1" parent="1">
          <mxGeometry x="420" y="-20" width="120" height="60" as="geometry" />
        </mxCell>
        <mxCell id="Nn1PM37cGR2AIW84P77a-36" value="" style="endArrow=classic;html=1;rounded=0;entryX=0.25;entryY=1;entryDx=0;entryDy=0;exitX=0;exitY=0;exitDx=0;exitDy=0;" edge="1" parent="1" source="Nn1PM37cGR2AIW84P77a-2" target="Nn1PM37cGR2AIW84P77a-35">
          <mxGeometry width="50" height="50" relative="1" as="geometry">
            <mxPoint x="450" y="110" as="sourcePoint" />
            <mxPoint x="300" y="250" as="targetPoint" />
          </mxGeometry>
        </mxCell>
        <mxCell id="Nn1PM37cGR2AIW84P77a-39" value="Text" style="edgeLabel;html=1;align=center;verticalAlign=middle;resizable=0;points=[];" vertex="1" connectable="0" parent="Nn1PM37cGR2AIW84P77a-36">
          <mxGeometry x="-0.025" relative="1" as="geometry">
            <mxPoint as="offset" />
          </mxGeometry>
        </mxCell>
        <mxCell id="Nn1PM37cGR2AIW84P77a-40" value="Store new&lt;br&gt;user" style="edgeLabel;html=1;align=center;verticalAlign=middle;resizable=0;points=[];" vertex="1" connectable="0" parent="Nn1PM37cGR2AIW84P77a-36">
          <mxGeometry x="-0.048" y="-3" relative="1" as="geometry">
            <mxPoint y="8" as="offset" />
          </mxGeometry>
        </mxCell>
        <mxCell id="Nn1PM37cGR2AIW84P77a-37" value="" style="endArrow=classic;html=1;rounded=0;exitX=0.75;exitY=1;exitDx=0;exitDy=0;entryX=1;entryY=0;entryDx=0;entryDy=0;" edge="1" parent="1" source="Nn1PM37cGR2AIW84P77a-35" target="Nn1PM37cGR2AIW84P77a-2">
          <mxGeometry width="50" height="50" relative="1" as="geometry">
            <mxPoint x="250" y="100" as="sourcePoint" />
            <mxPoint x="540" y="100" as="targetPoint" />
          </mxGeometry>
        </mxCell>
        <mxCell id="Nn1PM37cGR2AIW84P77a-38" value="Check if Email&lt;br&gt;ID used" style="edgeLabel;html=1;align=center;verticalAlign=middle;resizable=0;points=[];" vertex="1" connectable="0" parent="Nn1PM37cGR2AIW84P77a-37">
          <mxGeometry x="-0.0408" y="1" relative="1" as="geometry">
            <mxPoint y="-11" as="offset" />
          </mxGeometry>
        </mxCell>
        <mxCell id="Nn1PM37cGR2AIW84P77a-44" value="" style="endArrow=classic;html=1;rounded=0;exitX=1;exitY=0.5;exitDx=0;exitDy=0;entryX=1;entryY=0.5;entryDx=0;entryDy=0;" edge="1" parent="1" source="Nn1PM37cGR2AIW84P77a-35" target="Nn1PM37cGR2AIW84P77a-4">
          <mxGeometry width="50" height="50" relative="1" as="geometry">
            <mxPoint x="250" y="200" as="sourcePoint" />
            <mxPoint x="620" y="240" as="targetPoint" />
            <Array as="points">
              <mxPoint x="600" y="10" />
              <mxPoint x="600" y="280" />
            </Array>
          </mxGeometry>
        </mxCell>
        <mxCell id="Nn1PM37cGR2AIW84P77a-47" value="Check if user&lt;br&gt;exists" style="edgeLabel;html=1;align=center;verticalAlign=middle;resizable=0;points=[];" vertex="1" connectable="0" parent="Nn1PM37cGR2AIW84P77a-44">
          <mxGeometry x="-0.0585" y="4" relative="1" as="geometry">
            <mxPoint as="offset" />
          </mxGeometry>
        </mxCell>
        <mxCell id="Nn1PM37cGR2AIW84P77a-49" value="" style="endArrow=classic;html=1;rounded=0;entryX=0.5;entryY=0;entryDx=0;entryDy=0;exitX=0;exitY=0.5;exitDx=0;exitDy=0;" edge="1" parent="1" source="Nn1PM37cGR2AIW84P77a-35" target="Nn1PM37cGR2AIW84P77a-21">
          <mxGeometry width="50" height="50" relative="1" as="geometry">
            <mxPoint x="250" y="200" as="sourcePoint" />
            <mxPoint x="300" y="150" as="targetPoint" />
            <Array as="points">
              <mxPoint x="-40" y="10" />
            </Array>
          </mxGeometry>
        </mxCell>
        <mxCell id="Nn1PM37cGR2AIW84P77a-50" value="Check if user&lt;br&gt;exists" style="edgeLabel;html=1;align=center;verticalAlign=middle;resizable=0;points=[];" vertex="1" connectable="0" parent="Nn1PM37cGR2AIW84P77a-49">
          <mxGeometry x="0.6638" y="1" relative="1" as="geometry">
            <mxPoint as="offset" />
          </mxGeometry>
        </mxCell>
        <mxCell id="Nn1PM37cGR2AIW84P77a-51" value="&lt;font style=&quot;font-size: 20px;&quot;&gt;DFD 1&lt;/font&gt;" style="text;html=1;align=center;verticalAlign=middle;whiteSpace=wrap;rounded=0;" vertex="1" parent="1">
          <mxGeometry x="210" y="-110" width="120" height="70" as="geometry" />
        </mxCell>
      </root>
    </mxGraphModel>
  </diagram>
</mxfile>
